<svg width="394" height="30" viewBox="0 0 394 30" fill="none" xmlns="http://www.w3.org/2000/svg">
<path d="M16.36 1.12V29H10.36V1.12H16.36ZM26.16 0.959999V2.64H0.56V0.959999H26.16ZM26.16 2.52V7.24L25.76 7.2V6.76C25.76 5.50666 25.3867 4.52 24.64 3.8C23.92 3.05333 22.9333 2.66666 21.68 2.64V2.52H26.16ZM26.16 0.239998V1.4L21.28 0.959999C21.8667 0.959999 22.48 0.919998 23.12 0.839998C23.7867 0.759999 24.4 0.666666 24.96 0.559999C25.52 0.453332 25.92 0.346665 26.16 0.239998ZM10.48 26.08V29H7.28V28.6C7.28 28.6 7.36 28.6 7.52 28.6C7.70667 28.6 7.8 28.6 7.8 28.6C8.49333 28.6 9.08 28.36 9.56 27.88C10.0667 27.3733 10.3333 26.7733 10.36 26.08H10.48ZM16.24 26.08H16.36C16.3867 26.7733 16.64 27.3733 17.12 27.88C17.6267 28.36 18.2267 28.6 18.92 28.6C18.92 28.6 19 28.6 19.16 28.6C19.3467 28.6 19.44 28.6 19.44 28.6V29H16.24V26.08ZM5 2.52V2.64C3.77333 2.66666 2.78667 3.05333 2.04 3.8C1.32 4.52 0.96 5.50666 0.96 6.76V7.2L0.56 7.24V2.52H5ZM0.56 0.239998C0.826667 0.346665 1.22667 0.453332 1.76 0.559999C2.32 0.666666 2.93333 0.759999 3.6 0.839998C4.26667 0.919998 4.88 0.959999 5.44 0.959999L0.56 1.4V0.239998ZM52.7197 5V29H46.9997V5H52.7197ZM36.4397 5V29H30.6797V5H36.4397ZM47.3197 16.24V17.84H36.0797V16.24H47.3197ZM30.7997 26.48V29H28.0397V28.6C28.0397 28.6 28.1064 28.6 28.2397 28.6C28.3997 28.6 28.493 28.6 28.5197 28.6C29.1064 28.6 29.613 28.4 30.0397 28C30.4664 27.5733 30.6797 27.0667 30.6797 26.48H30.7997ZM36.3597 26.48H36.4397C36.4664 27.0667 36.693 27.5733 37.1197 28C37.5464 28.4 38.053 28.6 38.6397 28.6C38.6397 28.6 38.7064 28.6 38.8397 28.6C38.9997 28.6 39.0797 28.6 39.0797 28.6V29H36.3597V26.48ZM36.3597 7.52V5H39.0797V5.4C39.0797 5.4 38.9997 5.4 38.8397 5.4C38.7064 5.4 38.6397 5.4 38.6397 5.4C38.053 5.4 37.5464 5.6 37.1197 6C36.693 6.4 36.4664 6.90667 36.4397 7.52H36.3597ZM30.7997 7.52H30.6797C30.6797 6.90667 30.4664 6.4 30.0397 6C29.613 5.6 29.1064 5.4 28.5197 5.4C28.493 5.4 28.3997 5.4 28.2397 5.4C28.1064 5.4 28.0397 5.4 28.0397 5.4V5H30.7997V7.52ZM47.0797 26.48V29H44.3597V28.6C44.3597 28.6 44.4264 28.6 44.5597 28.6C44.7197 28.6 44.7997 28.6 44.7997 28.6C45.3864 28.6 45.893 28.4 46.3197 28C46.7464 27.5733 46.9597 27.0667 46.9597 26.48H47.0797ZM52.5997 26.48H52.7197C52.7464 27.0667 52.9597 27.5733 53.3597 28C53.7864 28.4 54.3064 28.6 54.9197 28.6C54.9197 28.6 54.9864 28.6 55.1197 28.6C55.2797 28.6 55.3597 28.6 55.3597 28.6V29H52.5997V26.48ZM52.6397 7.52V5H55.3997V5.4C55.3997 5.4 55.3197 5.4 55.1597 5.4C54.9997 5.4 54.9197 5.4 54.9197 5.4C54.3064 5.4 53.7864 5.6 53.3597 6C52.9597 6.4 52.7597 6.90667 52.7597 7.52H52.6397ZM47.0797 7.52H46.9597C46.9597 6.90667 46.7464 6.4 46.3197 6C45.893 5.6 45.3864 5.4 44.7997 5.4C44.7997 5.4 44.7197 5.4 44.5597 5.4C44.4264 5.4 44.3597 5.4 44.3597 5.4V5H47.0797V7.52ZM66.2844 5V29H60.5244V5H66.2844ZM75.6444 27.4L76.5644 29H66.2044V27.4H75.6444ZM74.2844 16.32V17.92H66.2044V16.32H74.2844ZM76.0844 5V6.6H66.2044V5H76.0844ZM78.2044 21.64L76.6844 29H69.7644L71.0044 27.4C72.151 27.4 73.1644 27.1733 74.0444 26.72C74.951 26.24 75.7244 25.5733 76.3644 24.72C77.0044 23.84 77.4977 22.8133 77.8444 21.64H78.2044ZM74.2844 17.84V21.36H73.8844V21.04C73.8844 20.16 73.6044 19.4267 73.0444 18.84C72.511 18.2533 71.7777 17.9467 70.8444 17.92V17.84H74.2844ZM74.2844 12.88V16.4H70.8444V16.32C71.7777 16.2933 72.511 15.9867 73.0444 15.4C73.6044 14.7867 73.8844 14.04 73.8844 13.16V12.88H74.2844ZM76.0844 6.52V10.76H75.6844V10.4C75.6844 9.22667 75.3644 8.30667 74.7244 7.64C74.111 6.97333 73.2177 6.62667 72.0444 6.6V6.52H76.0844ZM76.0844 4.4V5.36L71.8844 5C72.6577 5 73.471 4.93333 74.3244 4.8C75.1777 4.64 75.7644 4.50667 76.0844 4.4ZM60.6044 26.48L60.8044 29H57.8444V28.6C57.8444 28.6 57.9244 28.6 58.0844 28.6C58.2444 28.6 58.3377 28.6 58.3644 28.6C58.951 28.6 59.4444 28.4 59.8444 28C60.271 27.5733 60.4977 27.0667 60.5244 26.48H60.6044ZM60.6044 7.52H60.5244C60.4977 6.90667 60.271 6.4 59.8444 6C59.4444 5.6 58.951 5.4 58.3644 5.4C58.3377 5.4 58.2444 5.4 58.0844 5.4C57.9244 5.4 57.8444 5.4 57.8444 5.4V5H60.8044L60.6044 7.52ZM103.783 29.8L90.5425 1.24H97.7025L106.263 22.08L103.783 29.8ZM103.783 29.8L103.663 24.92L113.823 1.12H116.703L106.103 24.56C106.049 24.72 105.916 25.0267 105.703 25.48C105.516 25.9067 105.303 26.4 105.063 26.96C104.823 27.52 104.609 28.0667 104.423 28.6C104.263 29.1067 104.169 29.5067 104.143 29.8H103.783ZM112.623 3.92C112.969 3.12 112.929 2.50667 112.503 2.08C112.076 1.62666 111.609 1.4 111.102 1.4H110.743V0.999998H119.303V1.4C119.303 1.4 119.236 1.4 119.103 1.4C118.996 1.4 118.943 1.4 118.943 1.4C118.356 1.4 117.729 1.6 117.063 2C116.423 2.37333 115.889 3.01333 115.463 3.92H112.623ZM98.8225 3.92H91.7825C91.3558 3.01333 90.8092 2.37333 90.1425 2C89.5025 1.6 88.8758 1.4 88.2625 1.4C88.2625 1.4 88.2092 1.4 88.1025 1.4C87.9958 1.4 87.9425 1.4 87.9425 1.4V0.999998H100.663V1.4H100.303C99.7958 1.4 99.3425 1.62666 98.9425 2.08C98.5692 2.50667 98.5292 3.12 98.8225 3.92ZM127.615 5V29H121.855V5H127.615ZM121.975 26.48V29H119.055V28.6C119.055 28.6 119.135 28.6 119.295 28.6C119.455 28.6 119.549 28.6 119.575 28.6C120.189 28.6 120.722 28.4 121.175 28C121.629 27.5733 121.855 27.0667 121.855 26.48H121.975ZM127.535 26.48H127.615C127.642 27.0667 127.869 27.5733 128.295 28C128.749 28.4 129.295 28.6 129.935 28.6C129.935 28.6 130.002 28.6 130.135 28.6C130.295 28.6 130.389 28.6 130.415 28.6V29H127.535V26.48ZM127.535 7.52V5H130.415L130.375 5.4C130.375 5.4 130.309 5.4 130.175 5.4C130.042 5.4 129.962 5.4 129.935 5.4C129.295 5.4 128.749 5.6 128.295 6C127.869 6.4 127.642 6.90667 127.615 7.52H127.535ZM121.975 7.52H121.855C121.855 6.90667 121.629 6.4 121.175 6C120.722 5.6 120.175 5.4 119.535 5.4C119.535 5.4 119.455 5.4 119.295 5.4C119.135 5.4 119.055 5.4 119.055 5.4V5H121.975V7.52ZM137.083 5H143.723C144.763 5 145.817 5.08 146.883 5.24C147.95 5.4 148.923 5.69333 149.803 6.12C150.683 6.54666 151.39 7.14667 151.923 7.92C152.457 8.69333 152.723 9.70667 152.723 10.96C152.723 11.9733 152.51 12.84 152.083 13.56C151.657 14.28 151.11 14.84 150.443 15.24C149.777 15.64 149.07 15.8667 148.323 15.92C149.497 16 150.55 16.3067 151.483 16.84C152.417 17.3733 153.163 18.0933 153.723 19C154.31 19.88 154.603 20.9333 154.603 22.16C154.603 23.4133 154.337 24.48 153.803 25.36C153.27 26.2133 152.537 26.92 151.603 27.48C150.67 28.0133 149.59 28.4 148.363 28.64C147.163 28.88 145.897 29 144.563 29H140.963C140.963 29 140.963 28.8667 140.963 28.6C140.963 28.3333 140.963 28.0667 140.963 27.8C140.963 27.5333 140.963 27.4 140.963 27.4H142.883C143.843 27.4 144.71 27.2267 145.483 26.88C146.283 26.5067 146.923 25.9067 147.403 25.08C147.883 24.2533 148.123 23.16 148.123 21.8C148.123 20.8667 147.977 20.0533 147.683 19.36C147.417 18.64 147.03 18.0667 146.523 17.64C146.017 17.1867 145.417 16.8533 144.723 16.64C144.03 16.4267 143.27 16.32 142.443 16.32V15.96C143.03 15.96 143.59 15.88 144.123 15.72C144.657 15.5333 145.11 15.2667 145.483 14.92C145.883 14.5467 146.19 14.0667 146.403 13.48C146.643 12.8933 146.763 12.1867 146.763 11.36C146.763 9.57333 146.35 8.33333 145.523 7.64C144.697 6.92 143.657 6.56 142.403 6.56H137.443C137.443 6.53333 137.403 6.4 137.323 6.16C137.27 5.89333 137.217 5.64 137.163 5.4C137.11 5.13333 137.083 5 137.083 5ZM141.243 5V29H135.563V5H141.243ZM135.683 26.48V29H132.963V28.6C132.99 28.6 133.057 28.6 133.163 28.6C133.297 28.6 133.377 28.6 133.403 28.6C134.043 28.6 134.563 28.4 134.963 28C135.39 27.5733 135.59 27.0667 135.563 26.48H135.683ZM135.683 7.52H135.563C135.59 6.88 135.39 6.37333 134.963 6C134.563 5.6 134.043 5.4 133.403 5.4C133.377 5.4 133.297 5.4 133.163 5.4C133.057 5.4 132.99 5.4 132.963 5.4V5H135.683V7.52ZM165.304 5H169.624C170.717 5 171.784 5.12 172.824 5.36C173.864 5.57333 174.797 5.93333 175.624 6.44C176.451 6.92 177.104 7.58667 177.584 8.44C178.091 9.26667 178.344 10.3067 178.344 11.56C178.344 12.4933 178.144 13.4267 177.744 14.36C177.371 15.2667 176.771 16.0533 175.944 16.72C175.144 17.3867 174.091 17.8267 172.784 18.04C173.557 18.28 174.291 18.7467 174.984 19.44C175.704 20.1333 176.264 20.7867 176.664 21.4C176.771 21.6133 176.957 21.96 177.224 22.44C177.491 22.8933 177.824 23.4267 178.224 24.04C178.651 24.6267 179.091 25.24 179.544 25.88C180.077 26.6 180.544 27.16 180.944 27.56C181.344 27.9333 181.757 28.2 182.184 28.36C182.611 28.52 183.104 28.6 183.664 28.6V29H180.304C178.864 29 177.637 28.8933 176.624 28.68C175.637 28.4667 174.771 28.08 174.024 27.52C173.304 26.9333 172.637 26.1467 172.024 25.16C171.784 24.8133 171.531 24.4 171.264 23.92C170.997 23.4133 170.731 22.9067 170.464 22.4C170.197 21.8933 169.957 21.4 169.744 20.92C169.557 20.44 169.424 20.04 169.344 19.72C168.997 18.8667 168.597 18.2533 168.144 17.88C167.717 17.48 167.317 17.28 166.944 17.28V16.92C166.944 16.92 167.037 16.92 167.224 16.92C167.411 16.92 167.651 16.92 167.944 16.92C168.504 16.92 169.051 16.8267 169.584 16.64C170.144 16.4267 170.651 16.04 171.104 15.48C171.557 14.8933 171.891 14.04 172.104 12.92C172.157 12.76 172.197 12.5333 172.224 12.24C172.277 11.9467 172.291 11.6133 172.264 11.24C172.211 10.2533 172.024 9.46667 171.704 8.88C171.411 8.26667 171.037 7.81333 170.584 7.52C170.131 7.2 169.664 6.98667 169.184 6.88C168.731 6.74667 168.331 6.68 167.984 6.68C167.477 6.65333 167.011 6.65333 166.584 6.68C166.184 6.68 165.877 6.66667 165.664 6.64C165.637 6.64 165.597 6.50667 165.544 6.24C165.491 5.94667 165.437 5.66667 165.384 5.4C165.331 5.13333 165.304 5 165.304 5ZM165.704 5V29H159.904V5H165.704ZM160.024 26.48L160.184 29H157.304V28.6C157.331 28.6 157.397 28.6 157.504 28.6C157.637 28.6 157.731 28.6 157.784 28.6C158.371 28.6 158.864 28.4 159.264 28C159.691 27.5733 159.917 27.0667 159.944 26.48H160.024ZM160.024 7.48H159.944C159.917 6.86666 159.691 6.37333 159.264 6C158.864 5.6 158.384 5.4 157.824 5.4C157.744 5.4 157.637 5.4 157.504 5.4C157.397 5.4 157.331 5.4 157.304 5.4V5H160.184L160.024 7.48ZM165.624 26.48H165.704C165.704 27.1467 165.931 27.6667 166.384 28.04C166.864 28.4133 167.371 28.6 167.904 28.6C167.904 28.6 167.957 28.6 168.064 28.6C168.171 28.6 168.251 28.6 168.304 28.6V29H165.424L165.624 26.48ZM195.494 3.92L207.334 28.8H200.574L193.134 11.24L195.494 3.92ZM187.974 26.36C187.681 27.08 187.721 27.64 188.094 28.04C188.468 28.4133 188.881 28.6 189.334 28.6H189.654V29H181.654V28.6C181.654 28.6 181.708 28.6 181.814 28.6C181.921 28.6 181.974 28.6 181.974 28.6C182.508 28.6 183.068 28.44 183.654 28.12C184.241 27.7733 184.721 27.1867 185.094 26.36H187.974ZM195.494 3.92L195.574 8.72L186.894 28.88H183.934L193.294 8.76C193.348 8.6 193.468 8.32 193.654 7.92C193.841 7.49333 194.041 7.02667 194.254 6.52C194.468 5.98667 194.668 5.49333 194.854 5.04C195.041 4.56 195.148 4.18667 195.174 3.92H195.494ZM198.974 21.16V22.72H188.774V21.16H198.974ZM199.574 26.36H206.174C206.574 27.1867 207.068 27.7733 207.654 28.12C208.241 28.44 208.801 28.6 209.334 28.6C209.334 28.6 209.388 28.6 209.494 28.6C209.601 28.6 209.654 28.6 209.654 28.6V29H197.894V28.6H198.214C198.668 28.6 199.081 28.4133 199.454 28.04C199.828 27.64 199.868 27.08 199.574 26.36ZM212.117 4.44L235.597 25.08L235.997 29.52L212.557 8.88L212.117 4.44ZM212.277 26.56V29H209.317V28.6C209.317 28.6 209.423 28.6 209.637 28.6C209.85 28.6 209.957 28.6 209.957 28.6C210.57 28.6 211.09 28.4133 211.517 28.04C211.943 27.64 212.157 27.1467 212.157 26.56H212.277ZM217.637 26.56C217.663 27.1467 217.89 27.64 218.317 28.04C218.743 28.4133 219.25 28.6 219.837 28.6C219.837 28.6 219.943 28.6 220.157 28.6C220.397 28.6 220.517 28.6 220.517 28.6V29H217.557V26.56H217.637ZM212.117 4.44L217.637 10.44V29H212.157V9C212.157 7.64 212.09 6.54667 211.957 5.72C211.823 4.86667 211.757 4.44 211.757 4.44H212.117ZM235.957 5V24.84C235.957 25.7733 235.983 26.6 236.037 27.32C236.117 28.0133 236.183 28.56 236.237 28.96C236.317 29.3333 236.357 29.52 236.357 29.52H235.997L230.477 23.16V5H235.957ZM235.837 7.44V5H238.837V5.4C238.837 5.4 238.717 5.4 238.477 5.4C238.263 5.4 238.157 5.4 238.157 5.4C237.57 5.4 237.05 5.6 236.597 6C236.17 6.37333 235.957 6.85333 235.957 7.44H235.837ZM230.477 7.44C230.45 6.85333 230.223 6.37333 229.797 6C229.397 5.6 228.89 5.4 228.277 5.4C228.277 5.4 228.157 5.4 227.917 5.4C227.703 5.4 227.597 5.4 227.597 5.4V5H230.557V7.44H230.477ZM254.528 5.12V29H248.728V5.12H254.528ZM263.248 4.96V6.56H240.048V4.96H263.248ZM263.248 6.44V10.68H262.808V10.32C262.835 9.17333 262.515 8.26666 261.848 7.6C261.208 6.93333 260.315 6.58667 259.168 6.56V6.44H263.248ZM263.248 4.36V5.36L259.008 4.96C259.515 4.96 260.062 4.93333 260.648 4.88C261.235 4.8 261.768 4.72 262.248 4.64C262.728 4.53333 263.062 4.44 263.248 4.36ZM248.808 26.48V29H246.128V28.6C246.128 28.6 246.195 28.6 246.328 28.6C246.488 28.6 246.568 28.6 246.568 28.6C247.155 28.6 247.648 28.4 248.048 28C248.475 27.5733 248.702 27.0667 248.728 26.48H248.808ZM254.408 26.48H254.528C254.528 27.0667 254.742 27.5733 255.168 28C255.595 28.4 256.115 28.6 256.728 28.6C256.728 28.6 256.795 28.6 256.928 28.6C257.088 28.6 257.168 28.6 257.168 28.6V29H254.408V26.48ZM244.128 6.44V6.56C242.955 6.58667 242.048 6.93333 241.408 7.6C240.795 8.26666 240.488 9.17333 240.488 10.32V10.68H240.048V6.44H244.128ZM240.048 4.36C240.288 4.41333 240.635 4.49333 241.088 4.6C241.568 4.70667 242.088 4.8 242.648 4.88C243.235 4.93333 243.768 4.96 244.248 4.96L240.048 5.36V4.36ZM279.914 0.999998H286.834C288.78 0.999998 290.514 1.24 292.034 1.72C293.58 2.17333 294.794 2.90667 295.674 3.92C296.554 4.90667 296.994 6.21333 296.994 7.84C296.994 9.06667 296.754 10.1067 296.274 10.96C295.82 11.8133 295.22 12.4667 294.474 12.92C293.727 13.3733 292.94 13.6533 292.114 13.76C293.447 13.8667 294.647 14.24 295.714 14.88C296.807 15.52 297.66 16.3733 298.274 17.44C298.887 18.5067 299.194 19.76 299.194 21.2C299.194 22.9067 298.727 24.3467 297.794 25.52C296.86 26.6667 295.54 27.5333 293.834 28.12C292.154 28.7067 290.194 29 287.954 29H283.994C283.994 29 283.994 28.8533 283.994 28.56C284.02 28.24 284.034 27.9333 284.034 27.64C284.034 27.3467 284.034 27.2 284.034 27.2H286.194C287.394 27.2 288.447 26.9733 289.354 26.52C290.287 26.0667 291.007 25.36 291.514 24.4C292.047 23.44 292.314 22.2133 292.314 20.72C292.314 19.5467 292.127 18.5467 291.754 17.72C291.407 16.8933 290.927 16.2267 290.314 15.72C289.727 15.1867 289.034 14.8 288.234 14.56C287.434 14.32 286.594 14.2 285.714 14.2V13.84C286.327 13.84 286.927 13.7467 287.514 13.56C288.1 13.3467 288.62 13.0267 289.074 12.6C289.554 12.1733 289.927 11.6133 290.194 10.92C290.46 10.2 290.594 9.34667 290.594 8.36C290.594 7 290.38 5.90667 289.954 5.08C289.554 4.25333 288.967 3.65333 288.194 3.28C287.42 2.90667 286.527 2.72 285.514 2.72H280.314C280.314 2.69333 280.274 2.54666 280.194 2.28C280.14 1.98667 280.074 1.70667 279.994 1.44C279.94 1.14667 279.914 0.999998 279.914 0.999998ZM284.354 0.999998V29H278.354V0.999998H284.354ZM278.474 26.08V29H275.274V28.6C275.327 28.6 275.42 28.6 275.554 28.6C275.687 28.6 275.767 28.6 275.794 28.6C276.487 28.6 277.074 28.36 277.554 27.88C278.06 27.3733 278.327 26.7733 278.354 26.08H278.474ZM278.474 3.92H278.354C278.327 3.22666 278.06 2.64 277.554 2.16C277.074 1.65333 276.487 1.4 275.794 1.4C275.767 1.4 275.687 1.4 275.554 1.4C275.42 1.4 275.327 1.4 275.274 1.4V0.999998H278.474V3.92ZM310.191 5V29H304.431V5H310.191ZM319.551 27.4L320.471 29H310.111V27.4H319.551ZM318.191 16.32V17.92H310.111V16.32H318.191ZM319.991 5V6.6H310.111V5H319.991ZM322.111 21.64L320.591 29H313.671L314.911 27.4C316.057 27.4 317.071 27.1733 317.951 26.72C318.857 26.24 319.631 25.5733 320.271 24.72C320.911 23.84 321.404 22.8133 321.751 21.64H322.111ZM318.191 17.84V21.36H317.791V21.04C317.791 20.16 317.511 19.4267 316.951 18.84C316.417 18.2533 315.684 17.9467 314.751 17.92V17.84H318.191ZM318.191 12.88V16.4H314.751V16.32C315.684 16.2933 316.417 15.9867 316.951 15.4C317.511 14.7867 317.791 14.04 317.791 13.16V12.88H318.191ZM319.991 6.52V10.76H319.591V10.4C319.591 9.22667 319.271 8.30667 318.631 7.64C318.017 6.97333 317.124 6.62667 315.951 6.6V6.52H319.991ZM319.991 4.4V5.36L315.791 5C316.564 5 317.377 4.93333 318.231 4.8C319.084 4.64 319.671 4.50667 319.991 4.4ZM304.511 26.48L304.711 29H301.751V28.6C301.751 28.6 301.831 28.6 301.991 28.6C302.151 28.6 302.244 28.6 302.271 28.6C302.857 28.6 303.351 28.4 303.751 28C304.177 27.5733 304.404 27.0667 304.431 26.48H304.511ZM304.511 7.52H304.431C304.404 6.90667 304.177 6.4 303.751 6C303.351 5.6 302.857 5.4 302.271 5.4C302.244 5.4 302.151 5.4 301.991 5.4C301.831 5.4 301.751 5.4 301.751 5.4V5H304.711L304.511 7.52ZM332.613 5V29H326.853V5H332.613ZM341.933 27.4L342.893 29H332.533V27.4H341.933ZM344.573 21.64L343.012 29H336.093L337.333 27.4C338.479 27.4 339.493 27.1733 340.373 26.72C341.279 26.24 342.053 25.5733 342.693 24.72C343.333 23.84 343.826 22.8133 344.173 21.64H344.573ZM326.933 26.48L327.133 29H324.173V28.6C324.173 28.6 324.253 28.6 324.413 28.6C324.573 28.6 324.666 28.6 324.693 28.6C325.279 28.6 325.773 28.4 326.173 28C326.599 27.5733 326.826 27.0667 326.853 26.48H326.933ZM332.533 7.52V5H335.293V5.4C335.266 5.4 335.173 5.4 335.013 5.4C334.879 5.4 334.813 5.4 334.813 5.4C334.226 5.4 333.719 5.6 333.293 6C332.866 6.4 332.639 6.90667 332.613 7.52H332.533ZM326.933 7.52H326.853C326.826 6.90667 326.599 6.4 326.173 6C325.746 5.6 325.239 5.4 324.653 5.4C324.626 5.4 324.533 5.4 324.373 5.4C324.239 5.4 324.173 5.4 324.173 5.4V5H326.933V7.52ZM354.175 5V29H348.415V5H354.175ZM363.495 27.4L364.455 29H354.095V27.4H363.495ZM366.135 21.64L364.575 29H357.655L358.895 27.4C360.042 27.4 361.055 27.1733 361.935 26.72C362.842 26.24 363.615 25.5733 364.255 24.72C364.895 23.84 365.388 22.8133 365.735 21.64H366.135ZM348.495 26.48L348.695 29H345.735V28.6C345.735 28.6 345.815 28.6 345.975 28.6C346.135 28.6 346.228 28.6 346.255 28.6C346.842 28.6 347.335 28.4 347.735 28C348.162 27.5733 348.388 27.0667 348.415 26.48H348.495ZM354.095 7.52V5H356.855V5.4C356.828 5.4 356.735 5.4 356.575 5.4C356.442 5.4 356.375 5.4 356.375 5.4C355.788 5.4 355.282 5.6 354.855 6C354.428 6.4 354.202 6.90667 354.175 7.52H354.095ZM348.495 7.52H348.415C348.388 6.90667 348.162 6.4 347.735 6C347.308 5.6 346.802 5.4 346.215 5.4C346.188 5.4 346.095 5.4 345.935 5.4C345.802 5.4 345.735 5.4 345.735 5.4V5H348.495V7.52ZM379.83 3.92L391.67 28.8H384.91L377.47 11.24L379.83 3.92ZM372.31 26.36C372.017 27.08 372.057 27.64 372.43 28.04C372.804 28.4133 373.217 28.6 373.67 28.6H373.99V29H365.99V28.6C365.99 28.6 366.044 28.6 366.15 28.6C366.257 28.6 366.31 28.6 366.31 28.6C366.844 28.6 367.404 28.44 367.99 28.12C368.577 27.7733 369.057 27.1867 369.43 26.36H372.31ZM379.83 3.92L379.91 8.72L371.23 28.88H368.27L377.63 8.76C377.684 8.6 377.804 8.32 377.99 7.92C378.177 7.49333 378.377 7.02667 378.59 6.52C378.804 5.98667 379.004 5.49333 379.19 5.04C379.377 4.56 379.484 4.18667 379.51 3.92H379.83ZM383.31 21.16V22.72H373.11V21.16H383.31ZM383.91 26.36H390.51C390.91 27.1867 391.404 27.7733 391.99 28.12C392.577 28.44 393.137 28.6 393.67 28.6C393.67 28.6 393.724 28.6 393.83 28.6C393.937 28.6 393.99 28.6 393.99 28.6V29H382.23V28.6H382.55C383.004 28.6 383.417 28.4133 383.79 28.04C384.164 27.64 384.204 27.08 383.91 26.36Z" fill="#EC287A"/>
</svg>
